<?xml version="1.0" encoding="UTF-8"?>
<svg version="1.1" xmlns="http://www.w3.org/2000/svg" width="85" height="73">
<path d="M0 0 C7.19935772 0.3165675 12.70363244 3.67663152 18.9375 7.0625 C20.00291016 7.63033203 21.06832031 8.19816406 22.16601562 8.78320312 C24.78253724 10.17946354 27.39345925 11.58522071 30 13 C30.10134036 20.61707204 30.17144061 28.23397053 30.21972656 35.8515625 C30.23985375 38.44342546 30.26715816 41.03524296 30.30175781 43.62695312 C30.35022501 47.35037449 30.37295816 51.07319599 30.390625 54.796875 C30.41127014 55.95741394 30.43191528 57.11795288 30.45318604 58.31365967 C30.45363922 59.93488739 30.45363922 59.93488739 30.45410156 61.58886719 C30.46298401 62.53928894 30.47186646 63.48971069 30.48101807 64.46893311 C29.85536131 67.7610737 28.6083228 68.96262447 26 71 C20.04647226 71.16253254 14.52202126 67.51105139 9.3515625 64.87109375 C8.33903412 64.36199966 7.32650574 63.85290558 6.28329468 63.3283844 C3.06002063 61.70557997 -0.15750128 60.07172022 -3.375 58.4375 C-5.56343166 57.33324995 -7.75222976 56.22972582 -9.94140625 55.12695312 C-15.29854673 52.42636816 -20.65101138 49.7166922 -26 47 C-25.99214478 47.93066284 -25.99214478 47.93066284 -25.98413086 48.88012695 C-25.96334534 51.69090767 -25.95033483 54.50167221 -25.9375 57.3125 C-25.92912109 58.28896484 -25.92074219 59.26542969 -25.91210938 60.27148438 C-25.90727539 61.67817383 -25.90727539 61.67817383 -25.90234375 63.11328125 C-25.89448853 64.40939331 -25.89448853 64.40939331 -25.88647461 65.73168945 C-26 68 -26 68 -27 71 C-29.57929327 72.22529084 -30.74307286 72.09095971 -33.44189453 71.13549805 C-34.32989746 70.68215088 -35.21790039 70.22880371 -36.1328125 69.76171875 C-37.10347656 69.27123047 -38.07414062 68.78074219 -39.07421875 68.27539062 C-40.58435547 67.48938477 -40.58435547 67.48938477 -42.125 66.6875 C-43.13949219 66.17509766 -44.15398438 65.66269531 -45.19921875 65.13476562 C-52.69085884 61.30914116 -52.69085884 61.30914116 -55 59 C-55.24050903 56.59555054 -55.24050903 56.59555054 -55.22705078 53.54052734 C-55.22689972 52.39949554 -55.22674866 51.25846375 -55.22659302 50.08285522 C-55.21627045 48.84637238 -55.20594788 47.60988953 -55.1953125 46.3359375 C-55.1924826 45.07359283 -55.18965271 43.81124817 -55.18673706 42.51065063 C-55.17742131 39.15353056 -55.15944835 35.79668088 -55.1373291 32.43963623 C-55.1168755 29.01446878 -55.1077364 25.58927341 -55.09765625 22.1640625 C-55.07556458 15.44263329 -55.04206377 8.72133227 -55 2 C-48.34740195 0.43609968 -44.15082328 3.17364665 -38.1875 6.125 C-36.56026001 6.92804565 -36.56026001 6.92804565 -34.90014648 7.74731445 C-26.10905949 12.3728982 -21.6717743 16.7848466 -18 26 C-17.67 26.33 -17.34 26.66 -17 27 C-16.5560791 26.2886792 -16.1121582 25.5773584 -15.65478516 24.84448242 C-14.00394433 22.19972395 -12.35269567 19.5552207 -10.70117188 16.91088867 C-9.63640421 15.20576278 -8.5721058 13.50034389 -7.5078125 11.79492188 C-6.50234375 10.18520508 -6.50234375 10.18520508 -5.4765625 8.54296875 C-4.549646 7.0583313 -4.549646 7.0583313 -3.60400391 5.54370117 C-2.42837732 3.67933992 -1.2226001 1.83390015 0 0 Z " fill="#4876F7" transform="translate(55,1)"/>
<path d="M0 0 C6.06545484 0.31356148 11.02706417 3.27203312 16.3125 6 C17.23095703 6.4640625 18.14941406 6.928125 19.09570312 7.40625 C25.83129699 10.83129699 25.83129699 10.83129699 27 12 C27.16004685 14.17766486 27.25174036 16.36038827 27.31640625 18.54296875 C27.33727798 19.21522995 27.35814972 19.88749115 27.37965393 20.5801239 C27.44607854 22.78246214 27.50477977 24.98491757 27.5625 27.1875 C27.59376984 28.30405975 27.59376984 28.30405975 27.62567139 29.44317627 C27.89078096 38.91937352 28.09805579 48.39471913 28.125 57.875 C28.13188843 59.21727661 28.13188843 59.21727661 28.13891602 60.58666992 C28.13053998 63.97360443 28.07838902 66.76483295 27 70 C24.42070673 71.22529084 23.25692714 71.09095971 20.55810547 70.13549805 C19.67010254 69.68215088 18.78209961 69.22880371 17.8671875 68.76171875 C16.89652344 68.27123047 15.92585938 67.78074219 14.92578125 67.27539062 C13.41564453 66.48938477 13.41564453 66.48938477 11.875 65.6875 C10.86050781 65.17509766 9.84601562 64.66269531 8.80078125 64.13476562 C1.30914116 60.30914116 1.30914116 60.30914116 -1 58 C-1.24723816 55.60227966 -1.24723816 55.60227966 -1.24291992 52.55639648 C-1.24599655 51.41859238 -1.24907318 50.28078827 -1.25224304 49.10850525 C-1.24505753 47.87515945 -1.23787201 46.64181366 -1.23046875 45.37109375 C-1.23001053 44.11112076 -1.22955231 42.85114777 -1.2290802 41.55299377 C-1.22605464 38.88553475 -1.21922585 36.2184193 -1.20581055 33.55102539 C-1.18880341 30.12535972 -1.18499669 26.6998414 -1.18575573 23.27413845 C-1.1854191 20.01477555 -1.17658533 16.75544377 -1.16796875 13.49609375 C-1.16685593 12.26072372 -1.1657431 11.0253537 -1.16459656 9.75254822 C-1.15821671 8.61789627 -1.15183685 7.48324432 -1.14526367 6.31420898 C-1.14145187 5.30986313 -1.13764008 4.30551727 -1.13371277 3.27073669 C-1 1 -1 1 0 0 Z " fill="#4975F7" transform="translate(1,2)"/>
<path d="M0 0 C0.33 0 0.66 0 1 0 C1.10134735 7.47465445 1.1714435 14.949132 1.21972656 22.42431641 C1.23985272 24.96767803 1.26715637 27.51099333 1.30175781 30.05419922 C1.3502297 33.70812404 1.37295916 37.36143756 1.390625 41.015625 C1.41127014 42.15429016 1.43191528 43.29295532 1.45318604 44.46612549 C1.45348816 45.52692322 1.45379028 46.58772095 1.45410156 47.68066406 C1.46298401 48.61332092 1.47186646 49.54597778 1.48101807 50.50689697 C0.85100225 53.77225113 -0.41370745 54.97605741 -3 57 C-8.82012922 57.14679851 -13.90968186 53.65571257 -18.875 50.9375 C-19.75414063 50.46505859 -20.63328125 49.99261719 -21.5390625 49.50585938 C-23.69695524 48.34481926 -25.85027708 47.17607732 -28 46 C-24.99837947 39.73574847 -21.56667604 33.88014163 -17.875 28 C-17.30749023 27.09024414 -16.73998047 26.18048828 -16.15527344 25.24316406 C-14.9985585 23.38969542 -13.84036518 21.53714855 -12.68066406 19.68554688 C-11.10222439 17.16334519 -9.53022977 14.63727532 -7.9609375 12.109375 C-7.05742827 10.65616506 -6.15379048 9.20303504 -5.25 7.75 C-4.83218262 7.07710937 -4.41436523 6.40421875 -3.98388672 5.7109375 C-1.11516447 1.11516447 -1.11516447 1.11516447 0 0 Z " fill="#64A7FA" transform="translate(84,15)"/>
<path d="M0 0 C2.71027856 3.2667128 5.02148911 6.5330061 7.13671875 10.2109375 C7.99668457 11.69762939 7.99668457 11.69762939 8.87402344 13.21435547 C9.4724707 14.25736816 10.07091797 15.30038086 10.6875 16.375 C11.93556915 18.531614 13.18426719 20.68786417 14.43359375 22.84375 C15.04058105 23.89304687 15.64756836 24.94234375 16.27294922 26.0234375 C18.57380262 29.98894565 20.89964229 33.93866092 23.25 37.875 C23.60795654 38.48005371 23.96591309 39.08510742 24.3347168 39.70849609 C25.74742241 42.06728743 27.04637526 44.04637526 29 46 C28.01 46.495 28.01 46.495 27 47 C24.40209961 45.93603516 24.40209961 45.93603516 21.15234375 44.2890625 C19.99025391 43.70382813 18.82816406 43.11859375 17.63085938 42.515625 C17.0252417 42.20560547 16.41962402 41.89558594 15.7956543 41.57617188 C13.9451017 40.62889124 12.08943648 39.69235147 10.23242188 38.7578125 C1.16743708 34.16743708 1.16743708 34.16743708 0 33 C-0.08843793 30.55169574 -0.11528752 28.13179401 -0.09765625 25.68359375 C-0.0962413 24.95253922 -0.09482635 24.22148468 -0.09336853 23.46827698 C-0.08775408 21.12464368 -0.07519922 18.78110461 -0.0625 16.4375 C-0.05748686 14.85221492 -0.05292363 13.26692834 -0.04882812 11.68164062 C-0.03777997 7.7877239 -0.02050572 3.89387795 0 0 Z " fill="#4999FD" transform="translate(28,14)"/>
</svg>
